<svg width="189" height="37" viewBox="0 0 189 37" fill="none" xmlns="http://www.w3.org/2000/svg">
<mask id="mask0_559_443" style="mask-type:alpha" maskUnits="userSpaceOnUse" x="0" y="3" width="28" height="31">
<path d="M8.89428 29.748C8.89428 31.7493 7.27197 33.3716 5.27075 33.3716C3.26953 33.3716 1.64722 31.7493 1.64722 29.748C1.64722 27.7468 3.26953 26.1245 5.27075 26.1245C7.27197 26.1245 8.89428 27.7468 8.89428 29.748Z" fill="#C4C4C4"/>
<path d="M26.3533 29.748C26.3533 31.7493 24.731 33.3716 22.7297 33.3716C20.7285 33.3716 19.1062 31.7493 19.1062 29.748C19.1062 27.7468 20.7285 26.1245 22.7297 26.1245C24.731 26.1245 26.3533 27.7468 26.3533 29.748Z" fill="#C4C4C4"/>
<path fill-rule="evenodd" clip-rule="evenodd" d="M25.1913 27.0891C25.4382 27.3178 25.4094 27.7042 25.1508 27.9196C23.7802 29.0612 22.0174 29.748 20.0941 29.748H19.7649C19.401 29.748 19.0998 29.4504 19.1652 29.0924C19.4737 27.4042 20.9522 26.1245 22.7296 26.1245C23.68 26.1245 24.545 26.4904 25.1913 27.0891ZM27.0987 25.5115C26.8986 25.8926 26.3844 25.9263 26.0504 25.655C25.144 24.9187 23.9883 24.4775 22.7296 24.4775C20.0414 24.4775 17.8233 26.4899 17.4996 29.0905C17.4547 29.4515 17.164 29.748 16.8002 29.748H11.2C10.8361 29.748 10.5455 29.4515 10.5006 29.0905C10.1769 26.4899 7.95876 24.4775 5.27059 24.4775C4.0118 24.4775 2.85608 24.9187 1.94969 25.6551C1.61563 25.9264 1.10145 25.8927 0.901402 25.5116C0.325709 24.415 0 23.1666 0 21.8421V20.1949C0 19.8311 0.294965 19.5361 0.658823 19.5361H27.3412C27.705 19.5361 28 19.8311 28 20.1949V21.8421C28 23.1665 27.6743 24.4149 27.0987 25.5115ZM28 17.2302C28 17.5941 27.705 17.889 27.3412 17.889H0.658824C0.294965 17.889 0 17.5941 0 17.2302V13.2773C0 12.9135 0.294965 12.6185 0.658823 12.6185H27.3412C27.705 12.6185 28 12.9135 28 13.2773V17.2302ZM7.90588 3.39502C3.883 3.39502 0.561907 6.3997 0.0643695 10.2873C0.0168356 10.6587 0.318678 10.9714 0.693122 10.9714H27.3069C27.6813 10.9714 27.9832 10.6587 27.9356 10.2873C27.4381 6.3997 24.117 3.39502 20.0941 3.39502H7.90588ZM5.27059 26.1245C7.04795 26.1245 8.52644 27.4042 8.83496 29.0924C8.90037 29.4504 8.59914 29.748 8.23528 29.748H7.90588C5.98268 29.748 4.21987 29.0613 2.84928 27.9197C2.59074 27.7043 2.56193 27.3178 2.80878 27.0892C3.45509 26.4905 4.3201 26.1245 5.27059 26.1245Z" fill="#C4C4C4"/>
</mask>
<g mask="url(#mask0_559_443)">
<rect x="-1.64722" y="1.08936" width="33.6" height="10.8706" fill="white"/>
<rect x="-1.64722" y="18.8774" width="33.6" height="16.4706" fill="white"/>
<rect x="-1.64722" y="11.96" width="33.6" height="7.24706" rx="3.62353" fill="white"/>
<rect x="-23.0586" y="26.1245" width="31.9529" height="7.24706" fill="white"/>
<rect x="19.1062" y="26.1245" width="31.9529" height="7.24706" fill="white"/>
<ellipse cx="8.11249" cy="6.20646" rx="1" ry="0.5" transform="rotate(-20.8548 8.11249 6.20646)" fill="white"/>
<ellipse cx="14" cy="5.8833" rx="1" ry="0.5" fill="white"/>
<ellipse cx="19.1176" cy="6.29555" rx="1" ry="0.5" transform="rotate(28.1155 19.1176 6.29555)" fill="white"/>
</g>
<path d="M42.2999 30V18.147H40.2466V14.756L42.2999 14.6005V13.7605C42.2999 12.6613 42.4866 11.6657 42.8599 10.7739C43.2332 9.88207 43.8347 9.16654 44.6643 8.62729C45.4939 8.08805 46.6035 7.81843 47.9931 7.81843C48.636 7.81843 49.2271 7.88065 49.7664 8.00509C50.3056 8.12953 50.7412 8.25397 51.073 8.37841L50.233 11.7383C49.9634 11.6346 49.6938 11.562 49.4242 11.5205C49.1545 11.4583 48.8953 11.4272 48.6464 11.4272C48.0864 11.4272 47.6509 11.6035 47.3398 11.9561C47.0287 12.2879 46.8731 12.8479 46.8731 13.636V14.5693H49.6419V18.147H46.8731V30H42.2999ZM57.6701 30.3733C56.3634 30.3733 55.1294 30.0622 53.9679 29.44C52.8272 28.7971 51.9043 27.8741 51.1991 26.6712C50.494 25.4475 50.1414 23.9854 50.1414 22.2847C50.1414 20.5632 50.494 19.1011 51.1991 17.8981C51.9043 16.6952 52.8272 15.7826 53.9679 15.1604C55.1294 14.5175 56.3634 14.196 57.6701 14.196C58.9767 14.196 60.2004 14.5175 61.3411 15.1604C62.4818 15.7826 63.4047 16.6952 64.1099 17.8981C64.815 19.1011 65.1676 20.5632 65.1676 22.2847C65.1676 23.9854 64.815 25.4475 64.1099 26.6712C63.4047 27.8741 62.4818 28.7971 61.3411 29.44C60.2004 30.0622 58.9767 30.3733 57.6701 30.3733ZM57.6701 26.6712C58.6034 26.6712 59.3085 26.2771 59.7855 25.489C60.2626 24.6802 60.5011 23.612 60.5011 22.2847C60.5011 20.9366 60.2626 19.8684 59.7855 19.0803C59.3085 18.2922 58.6034 17.8981 57.6701 17.8981C56.716 17.8981 56.0005 18.2922 55.5235 19.0803C55.0672 19.8684 54.839 20.9366 54.839 22.2847C54.839 23.612 55.0672 24.6802 55.5235 25.489C56.0005 26.2771 56.716 26.6712 57.6701 26.6712ZM74.1487 30.3733C72.8421 30.3733 71.6081 30.0622 70.4466 29.44C69.3059 28.7971 68.383 27.8741 67.6778 26.6712C66.9727 25.4475 66.6201 23.9854 66.6201 22.2847C66.6201 20.5632 66.9727 19.1011 67.6778 17.8981C68.383 16.6952 69.3059 15.7826 70.4466 15.1604C71.6081 14.5175 72.8421 14.196 74.1487 14.196C75.4554 14.196 76.679 14.5175 77.8197 15.1604C78.9604 15.7826 79.8834 16.6952 80.5885 17.8981C81.2937 19.1011 81.6463 20.5632 81.6463 22.2847C81.6463 23.9854 81.2937 25.4475 80.5885 26.6712C79.8834 27.8741 78.9604 28.7971 77.8197 29.44C76.679 30.0622 75.4554 30.3733 74.1487 30.3733ZM74.1487 26.6712C75.082 26.6712 75.7872 26.2771 76.2642 25.489C76.7413 24.6802 76.9798 23.612 76.9798 22.2847C76.9798 20.9366 76.7413 19.8684 76.2642 19.0803C75.7872 18.2922 75.082 17.8981 74.1487 17.8981C73.1947 17.8981 72.4792 18.2922 72.0021 19.0803C71.5459 19.8684 71.3177 20.9366 71.3177 22.2847C71.3177 23.612 71.5459 24.6802 72.0021 25.489C72.4792 26.2771 73.1947 26.6712 74.1487 26.6712ZM89.5075 30.3733C87.5994 30.3733 86.0646 29.6578 84.9031 28.2267C83.7624 26.7749 83.1921 24.7942 83.1921 22.2847C83.1921 20.6047 83.4928 19.1633 84.0943 17.9604C84.7165 16.7367 85.515 15.8034 86.4898 15.1604C87.4853 14.5175 88.5223 14.196 89.6008 14.196C90.4511 14.196 91.1667 14.3412 91.7474 14.6316C92.3281 14.9219 92.8777 15.316 93.3962 15.8138L93.2096 13.4494V8.19175H97.7828V30H94.0495L93.7384 28.4756H93.614C93.0748 29.0148 92.4422 29.4711 91.7163 29.8444C90.9904 30.197 90.2541 30.3733 89.5075 30.3733ZM90.6896 26.6401C91.1874 26.6401 91.6333 26.5364 92.0274 26.329C92.4422 26.1216 92.8362 25.7586 93.2096 25.2401V18.9248C92.8155 18.5514 92.3903 18.2922 91.934 18.147C91.4985 18.0018 91.0733 17.9292 90.6585 17.9292C89.9326 17.9292 89.2897 18.2818 88.7297 18.987C88.1697 19.6714 87.8897 20.7499 87.8897 22.2225C87.8897 23.7365 88.1282 24.8564 88.6053 25.5824C89.103 26.2875 89.7978 26.6401 90.6896 26.6401Z" fill="white"/>
<path d="M104.911 30L101.053 14.5693H105.595L107.088 21.7247C107.213 22.4921 107.327 23.2491 107.431 23.9957C107.534 24.7424 107.648 25.5098 107.773 26.2979H107.897C108.042 25.5098 108.177 24.732 108.302 23.9646C108.447 23.1972 108.613 22.4506 108.799 21.7247L110.511 14.5693H114.462L116.204 21.7247C116.39 22.4921 116.556 23.2491 116.701 23.9957C116.867 24.7424 117.023 25.5098 117.168 26.2979H117.293C117.438 25.5098 117.552 24.7424 117.635 23.9957C117.738 23.2491 117.863 22.4921 118.008 21.7247L119.47 14.5693H123.701L119.999 30H114.648L113.248 23.8402C113.103 23.1143 112.958 22.3884 112.813 21.6625C112.688 20.9366 112.553 20.1588 112.408 19.3292H112.284C112.139 20.1588 112.004 20.9366 111.879 21.6625C111.776 22.3884 111.651 23.1143 111.506 23.8402L110.137 30H104.911ZM129.444 30.3733C128.034 30.3733 126.914 29.9274 126.084 29.0356C125.255 28.123 124.84 27.0134 124.84 25.7068C124.84 24.0891 125.524 22.8239 126.893 21.9113C128.262 20.9988 130.471 20.3869 133.52 20.0758C133.478 19.3914 133.271 18.8522 132.897 18.4581C132.545 18.0433 131.943 17.8359 131.093 17.8359C130.45 17.8359 129.797 17.9604 129.133 18.2092C128.469 18.4581 127.764 18.8003 127.018 19.2359L125.369 16.2182C126.344 15.6167 127.381 15.1293 128.48 14.756C129.6 14.3827 130.761 14.196 131.964 14.196C133.934 14.196 135.449 14.7664 136.506 15.9071C137.564 17.0478 138.093 18.8003 138.093 21.1647V30H134.36L134.049 28.4134H133.924C133.281 28.9941 132.586 29.4711 131.84 29.8444C131.114 30.197 130.315 30.3733 129.444 30.3733ZM131 26.8268C131.518 26.8268 131.964 26.7127 132.338 26.4845C132.732 26.2357 133.126 25.9142 133.52 25.5201V22.8135C131.902 23.0209 130.782 23.3528 130.16 23.8091C129.538 24.2446 129.226 24.7631 129.226 25.3646C129.226 25.8623 129.382 26.2357 129.693 26.4845C130.025 26.7127 130.461 26.8268 131 26.8268ZM148.786 30.3054C147.241 30.3054 145.833 30 144.56 29.3891C143.305 28.7612 142.303 27.8195 141.557 26.5637C140.81 25.308 140.437 23.7384 140.437 21.8548C140.437 20.4633 140.657 19.233 141.099 18.164C141.54 17.078 142.142 16.1616 142.906 15.415C143.669 14.6683 144.543 14.1083 145.528 13.735C146.529 13.3447 147.581 13.1496 148.684 13.1496C149.906 13.1496 150.966 13.3702 151.866 13.8114C152.765 14.2356 153.503 14.7447 154.08 15.3386L151.789 18.1385C151.382 17.7822 150.949 17.4937 150.491 17.2731C150.05 17.0355 149.498 16.9167 148.837 16.9167C147.717 16.9167 146.783 17.341 146.037 18.1894C145.29 19.0209 144.917 20.1918 144.917 21.7021C144.917 23.2463 145.265 24.4426 145.96 25.291C146.673 26.1225 147.768 26.5383 149.244 26.5383C149.481 26.5383 149.711 26.5128 149.931 26.4619C150.169 26.411 150.364 26.3347 150.517 26.2328V23.942H148.073V20.3785H154.386V28.2691C153.809 28.8291 153.02 29.3127 152.018 29.72C151.034 30.1103 149.957 30.3054 148.786 30.3054ZM163.912 30.3733C162.605 30.3733 161.371 30.0622 160.21 29.44C159.069 28.7971 158.146 27.8741 157.441 26.6712C156.736 25.4475 156.383 23.9854 156.383 22.2847C156.383 20.5632 156.736 19.1011 157.441 17.8981C158.146 16.6952 159.069 15.7826 160.21 15.1604C161.371 14.5175 162.605 14.196 163.912 14.196C165.219 14.196 166.442 14.5175 167.583 15.1604C168.724 15.7826 169.647 16.6952 170.352 17.8981C171.057 19.1011 171.409 20.5632 171.409 22.2847C171.409 23.9854 171.057 25.4475 170.352 26.6712C169.647 27.8741 168.724 28.7971 167.583 29.44C166.442 30.0622 165.219 30.3733 163.912 30.3733ZM163.912 26.6712C164.845 26.6712 165.55 26.2771 166.027 25.489C166.504 24.6802 166.743 23.612 166.743 22.2847C166.743 20.9366 166.504 19.8684 166.027 19.0803C165.55 18.2922 164.845 17.8981 163.912 17.8981C162.958 17.8981 162.242 18.2922 161.765 19.0803C161.309 19.8684 161.081 20.9366 161.081 22.2847C161.081 23.612 161.309 24.6802 161.765 25.489C162.242 26.2771 162.958 26.6712 163.912 26.6712ZM173.764 30V14.5693H177.497L177.808 16.5293H177.933C178.597 15.9071 179.322 15.3678 180.111 14.9116C180.919 14.4345 181.842 14.196 182.879 14.196C184.559 14.196 185.773 14.756 186.519 15.876C187.287 16.9752 187.67 18.4892 187.67 20.4181V30H183.097V21.0092C183.097 19.8892 182.942 19.1218 182.631 18.707C182.34 18.2922 181.863 18.0848 181.199 18.0848C180.619 18.0848 180.121 18.2196 179.706 18.4892C179.291 18.7381 178.835 19.1011 178.337 19.5781V30H173.764Z" fill="white"/>
</svg>
